<?xml version="1.0" encoding="utf-8"?>
<!-- Generator: Adobe Illustrator 24.1.1, SVG Export Plug-In . SVG Version: 6.00 Build 0)  -->
<svg version="1.1" id="Layer_1" xmlns="http://www.w3.org/2000/svg" xmlns:xlink="http://www.w3.org/1999/xlink" x="0px" y="0px"
	 viewBox="0 0 19.1 18.6" style="enable-background:new 0 0 19.1 18.6;" xml:space="preserve">
<style type="text/css">
	.st0{fill-rule:evenodd;clip-rule:evenodd;fill:#465AC8;}
</style>
<path class="st0" d="M11.2,18.1L11.2,18.1c-0.4,0.4-0.8,0.6-1.4,0.6c-1.1,0-2-0.9-2-2c0-0.6,0.2-1.1,0.6-1.4l3.9-3.9H2
	c-1.1,0-2-0.9-2-2c0-1.1,0.9-2,2-2h10.4l-4-4l0,0C8.1,3,7.8,2.5,7.8,2c0-1.1,0.9-2,2-2c0.6,0,1.2,0.3,1.6,0.8l0,0l7.1,7.1v0
	c0.4,0.4,0.7,0.9,0.7,1.5c0,0.5-0.2,1-0.6,1.4L11.2,18.1z"/>
</svg>
