<?xml version="1.0" encoding="utf-8"?>
<!-- Generator: Adobe Illustrator 24.1.1, SVG Export Plug-In . SVG Version: 6.00 Build 0)  -->
<svg version="1.1" id="Layer_1" xmlns="http://www.w3.org/2000/svg" xmlns:xlink="http://www.w3.org/1999/xlink" x="0px" y="0px"
	 viewBox="0 0 37.57 18.63" style="enable-background:new 0 0 37.57 18.63;" xml:space="preserve">
<style type="text/css">
	.st0{fill-rule:evenodd;clip-rule:evenodd;fill:#FFFFFF;}
</style>
<path class="st0" d="M0.58,10.75C0.22,10.39,0,9.89,0,9.35c0-0.58,0.26-1.11,0.66-1.47V7.87L7.72,0.8l0,0C8.08,0.32,8.66,0,9.31,0
	c1.09,0,1.97,0.88,1.97,1.98c0,0.55-0.22,1.03-0.57,1.39l0,0l-3.96,4h7.44c1.09,0,1.97,0.88,1.97,1.98c0,1.09-0.88,1.98-1.97,1.98
	H6.78l3.93,3.92c0.36,0.36,0.58,0.85,0.58,1.41c0,1.09-0.88,1.98-1.97,1.98c-0.55,0-1.03-0.22-1.39-0.57l0,0L0.58,10.75z
	 M36.99,7.88c0.36,0.36,0.58,0.85,0.58,1.4c0,0.58-0.26,1.11-0.66,1.47v0.01l-7.06,7.07l0,0c-0.36,0.48-0.94,0.8-1.59,0.8
	c-1.09,0-1.97-0.88-1.97-1.98c0-0.55,0.22-1.03,0.57-1.39l0,0l3.96-4h-7.44c-1.09,0-1.97-0.88-1.97-1.98c0-1.09,0.88-1.98,1.97-1.98
	h7.42l-3.93-3.92c-0.36-0.36-0.58-0.85-0.58-1.41c0-1.09,0.88-1.98,1.97-1.98c0.55,0,1.03,0.22,1.39,0.57l0,0L36.99,7.88z"/>
</svg>
