<?xml version="1.0" encoding="utf-8"?>
<!-- Generator: Adobe Illustrator 24.1.1, SVG Export Plug-In . SVG Version: 6.00 Build 0)  -->
<svg version="1.1" id="Layer_1" xmlns="http://www.w3.org/2000/svg" xmlns:xlink="http://www.w3.org/1999/xlink" x="0px" y="0px"
	 viewBox="0 0 19.12 18.64" style="enable-background:new 0 0 19.12 18.64;" xml:space="preserve">
<style type="text/css">
	.st0{fill-rule:evenodd;clip-rule:evenodd;fill:#FFFFFF;}
</style>
<path class="st0" d="M11.19,18.07L11.19,18.07c-0.36,0.35-0.84,0.57-1.39,0.57c-1.09,0-1.97-0.89-1.97-1.98
	c0-0.56,0.22-1.05,0.58-1.41l3.93-3.92H1.97C0.88,11.33,0,10.44,0,9.35c0-1.1,0.88-1.98,1.97-1.98h10.4l-3.96-4l0,0
	C8.06,3.01,7.84,2.53,7.84,1.98C7.84,0.88,8.72,0,9.81,0c0.65,0,1.23,0.32,1.59,0.8l0,0l7.06,7.07v0.01
	c0.4,0.36,0.66,0.89,0.66,1.47c0,0.54-0.22,1.04-0.58,1.4L11.19,18.07z"/>
</svg>
