<?xml version="1.0" encoding="utf-8"?>
<!-- Generator: Adobe Illustrator 24.1.1, SVG Export Plug-In . SVG Version: 6.00 Build 0)  -->
<svg version="1.1" id="Layer_1" xmlns="http://www.w3.org/2000/svg" xmlns:xlink="http://www.w3.org/1999/xlink" x="0px" y="0px"
	 viewBox="0 0 19.1 18.6" style="enable-background:new 0 0 19.1 18.6;" xml:space="preserve">
<style type="text/css">
	.st0{fill-rule:evenodd;clip-rule:evenodd;fill:#465AC8;}
</style>
<path class="st0" d="M0.6,10.8C0.2,10.4,0,9.9,0,9.4c0-0.6,0.3-1.1,0.7-1.5v0l7.1-7.1l0,0C8.1,0.3,8.7,0,9.3,0c1.1,0,2,0.9,2,2
	c0,0.6-0.2,1-0.6,1.4l0,0l-4,4h10.4c1.1,0,2,0.9,2,2c0,1.1-0.9,2-2,2H6.8l3.9,3.9c0.4,0.4,0.6,0.9,0.6,1.4c0,1.1-0.9,2-2,2
	c-0.6,0-1-0.2-1.4-0.6l0,0L0.6,10.8z"/>
</svg>
