<?xml version="1.0" encoding="utf-8"?>
<!-- Generator: Adobe Illustrator 24.1.1, SVG Export Plug-In . SVG Version: 6.00 Build 0)  -->
<svg version="1.1" id="Layer_1" xmlns="http://www.w3.org/2000/svg" xmlns:xlink="http://www.w3.org/1999/xlink" x="0px" y="0px"
	 viewBox="0 0 192.32 212.72" style="enable-background:new 0 0 192.32 212.72;" xml:space="preserve">
<style type="text/css">
	.st0{fill-rule:evenodd;clip-rule:evenodd;fill:#FFFFFF;}
	.st1{fill-rule:evenodd;clip-rule:evenodd;fill:#0C5BA7;}
</style>
<g>
	<path class="st0" d="M183.51,114.79c0.17,2.19,0.23,4.4,0.23,6.58c0,1.05,0,2.1-0.06,3.15l-0.88,10.07
		c-6.44,44.36-44.6,78.13-90.34,78.13c-47.69,0-87.45-36.84-91.02-84.43c-2.86-28.12-2.75-60.16,12.36-85.08
		c17.24-28.38,48.43-38.71,79.9-41.6L111.32,0l-3.83,7.97c21.92-3.63,44.06-5.16,66.35-5.19l10.89-0.03l-0.85,10.87
		c-0.31,3.66-0.99,7.04-2.07,10.16l9.24-5.02l1.08,15.61c0.99,14.42-1.96,26.16-9.39,38L183.51,114.79z"/>
	<path class="st1" d="M63.83,112.09c5.13,0,9.27,4.14,9.27,9.28s-4.14,9.31-9.27,9.31s-9.3-4.17-9.3-9.31S58.7,112.09,63.83,112.09
		L63.83,112.09z M121.13,112.09c5.13,0,9.3,4.14,9.3,9.28s-4.17,9.31-9.3,9.31s-9.3-4.17-9.3-9.31S116,112.09,121.13,112.09
		L121.13,112.09z M124.51,146.57c3.35,0,6.04,2.72,6.04,6.04c0,2.16-1.11,4.03-2.78,5.11c-23.96,19.84-47.41,20.15-70.38,0.11
		c-1.79-1.05-2.98-2.98-2.98-5.22c0-3.32,2.69-6.04,6.04-6.04c1.05,0,2.07,0.28,2.95,0.79l0,0l0,0c0.77,0.43,1.42,0.99,1.93,1.7
		c17.75,15.27,35.87,15.07,54.33-0.06c0.57-0.74,1.28-1.33,2.1-1.76l0,0C122.58,146.83,123.51,146.57,124.51,146.57L124.51,146.57z
		 M173.48,115.24c0.17,2.04,0.23,4.06,0.23,6.13c0,1.02,0,2.04-0.06,3.06v0.11l0,0c-1.67,43.42-37.37,78.13-81.18,78.13
		c-42.82,0-77.92-33.17-81.01-75.26l0,0C5.45,68.87,16.08,18.81,94.65,11.61c-1.62,3.38-3.2,6.73-4.82,10.07
		c28.24-6.47,56.2-8.8,84.04-8.85c-0.94,11.81-7.57,19.24-15.31,25.82c9.41,0.82,17.35-0.23,23.56-3.6
		c1.08,15.69-3.52,25.71-9.47,34.39L173.48,115.24z M152.69,86.72c5.87,10.22,9.24,22.02,9.24,34.65c0,38.4-31.1,69.5-69.47,69.5
		c-38.34,0-69.44-31.1-69.44-69.5c0-15.86,5.33-30.51,14.26-42.2C50.08,86.5,64.03,91.24,79.2,93.25
		c-2.92-5.42-4.96-10.81-4.65-16.23C100.41,91.95,126.44,96.03,152.69,86.72L152.69,86.72z"/>
</g>
</svg>
