<?xml version="1.0" encoding="utf-8"?>
<!-- Generator: Adobe Illustrator 24.1.1, SVG Export Plug-In . SVG Version: 6.00 Build 0)  -->
<svg version="1.1" id="Layer_1" xmlns="http://www.w3.org/2000/svg" xmlns:xlink="http://www.w3.org/1999/xlink" x="0px" y="0px"
	 viewBox="0 0 34.82 69.98" style="enable-background:new 0 0 34.82 69.98;" xml:space="preserve">
<style type="text/css">
	.st0{fill-rule:evenodd;clip-rule:evenodd;fill:#FFFFFF;}
	.st1{fill-rule:evenodd;clip-rule:evenodd;fill:#0C5BA7;}
</style>
<g>
	<path class="st0" d="M17.41,0L17.41,0c9.58,0,17.41,7.83,17.41,17.42v35.13c0,9.59-7.83,17.42-17.41,17.42l0,0
		C7.83,69.98,0,62.15,0,52.56V17.42C0,7.83,7.83,0,17.41,0L17.41,0z"/>
	<path class="st1" d="M17.41,4.77c5.25,0,9.47,4.26,9.47,9.48c0,5.25-4.22,9.48-9.47,9.48c-5.22,0-9.47-4.23-9.47-9.48
		C7.94,9.02,12.19,4.77,17.41,4.77L17.41,4.77z M10.46,32.12c-2.38,2.67-3.54,6.78-4.17,11.55c-1.56,2.81-3.91,1.42-4.37-0.03
		c0.6-9.25,4.93-18.9,15.48-19.3c10.55,0.4,14.89,10.05,15.48,19.3c-0.45,1.45-2.81,2.84-4.37,0.03c-0.62-4.74-1.79-8.85-4.14-11.52
		v14.19v1.84v15.52c-0.11,1.87-4.57,2.1-4.93,0V48.19h-4.08v15.52c-0.09,1.87-4.54,2.1-4.91,0V48.19v-1.84V32.12z"/>
</g>
</svg>
