<?xml version="1.0" encoding="utf-8"?>
<!-- Generator: Adobe Illustrator 24.1.1, SVG Export Plug-In . SVG Version: 6.00 Build 0)  -->
<svg version="1.1" id="Layer_1" xmlns="http://www.w3.org/2000/svg" xmlns:xlink="http://www.w3.org/1999/xlink" x="0px" y="0px"
	 viewBox="0 0 96.2 96.3" style="enable-background:new 0 0 96.2 96.3;" xml:space="preserve">
<style type="text/css">
	.st0{fill-rule:evenodd;clip-rule:evenodd;fill:#FFFFFF;}
</style>
<path class="st0" d="M18.9,18.9L18.9,18.9c3.4-3.4,8.9-3.4,12.3,0l16.9,16.9L65,18.9c3.4-3.4,8.9-3.4,12.3,0l0,0
	c3.4,3.4,3.4,8.9,0,12.3L60.4,48.1L77.3,65c3.4,3.4,3.4,8.9,0,12.3l0,0c-3.4,3.4-8.9,3.4-12.3,0L48.1,60.5L31.2,77.3
	c-3.4,3.4-8.9,3.4-12.3,0l0,0c-3.4-3.4-3.4-8.9,0-12.3l16.9-16.9L18.9,31.2C15.5,27.9,15.5,22.3,18.9,18.9L18.9,18.9z"/>
</svg>
