<?xml version="1.0" encoding="utf-8"?>
<!-- Generator: Adobe Illustrator 24.1.1, SVG Export Plug-In . SVG Version: 6.00 Build 0)  -->
<svg version="1.1" id="Layer_1" xmlns="http://www.w3.org/2000/svg" xmlns:xlink="http://www.w3.org/1999/xlink" x="0px" y="0px"
	 viewBox="0 0 96.18 96.26" style="enable-background:new 0 0 96.18 96.26;" xml:space="preserve">
<style type="text/css">
	.st0{fill-rule:evenodd;clip-rule:evenodd;fill:#FFFFFF;}
	.st1{fill-rule:evenodd;clip-rule:evenodd;fill:#E52421;}
</style>
<circle class="st0" cx="47.69" cy="47.63" r="43.6"/>
<g>
	<path class="st1" d="M38.7,0h18.77c21.29,0,38.7,17.45,38.7,38.74v18.79c0,21.31-17.41,38.74-38.7,38.74H38.7
		C17.44,96.26,0,78.84,0,57.52V38.74C0,17.45,17.44,0,38.7,0L38.7,0z M18.91,18.93L18.91,18.93c3.37-3.38,8.93-3.38,12.31,0
		l16.87,16.89l16.87-16.89c3.37-3.38,8.93-3.38,12.31,0l0,0c3.37,3.38,3.37,8.94,0,12.32L60.39,48.13l16.87,16.89
		c3.37,3.38,3.37,8.94,0,12.32l0,0c-3.37,3.38-8.93,3.38-12.31,0L48.09,60.45L31.22,77.33c-3.37,3.38-8.93,3.38-12.31,0l0,0
		c-3.37-3.38-3.37-8.94,0-12.32l16.87-16.89L18.91,31.24C15.54,27.87,15.54,22.31,18.91,18.93L18.91,18.93z"/>
</g>
</svg>
