<?xml version="1.0" encoding="utf-8"?>
<!-- Generator: Adobe Illustrator 24.1.1, SVG Export Plug-In . SVG Version: 6.00 Build 0)  -->
<svg version="1.1" id="Layer_1" xmlns="http://www.w3.org/2000/svg" xmlns:xlink="http://www.w3.org/1999/xlink" x="0px" y="0px"
	 viewBox="0 0 301.58 187.53" style="enable-background:new 0 0 301.58 187.53;" xml:space="preserve">
<style type="text/css">
	.st0{fill-rule:evenodd;clip-rule:evenodd;fill:#FFFFFF;}
	.st1{fill-rule:evenodd;clip-rule:evenodd;fill:#E61665;}
</style>
<path class="st0" d="M242.2,85.9c0.34,3.24,0.51,6.47,0.51,9.73c0,50.74-41.11,91.89-91.81,91.89s-91.81-41.15-91.81-91.89
	c0-3.26,0.17-6.5,0.51-9.73c-7.66,8.14-19.2,11.98-32.66,13.59L0,102.73l18.37-20.01c1.13-1.25,2.07-2.64,2.84-4.14
	c1.5-2.92,2.38-6.21,2.92-9.45c0.94-5.68,0.88-11.58,0.65-17.31c-0.2-4.82-0.85-10.9-0.09-15.61C27.39,19.64,38.28,4.26,55.43,0.85
	c9.5-1.9,19.03,0.51,26.91,6.04c5.61,3.94,10.15,9.19,13.75,15.01c15.74-11.75,34.88-18.16,54.81-18.16
	c19.82,0,38.87,6.36,54.58,17.99c3.6-5.85,8.14-11.1,13.78-15.07c7.85-5.51,17.38-7.92,26.88-6.04
	c17.18,3.43,28.07,18.81,30.74,35.39c0.77,4.71,0.14,10.78-0.06,15.61c-0.26,5.73-0.31,11.64,0.62,17.31
	c0.79,4.85,2.38,9.9,5.78,13.59l18.35,19.98l-26.94-3.21C261.29,97.71,249.83,93.91,242.2,85.9L242.2,85.9z"/>
<path class="st1" d="M177.47,41.32c-2.04,32.49,36.58,38.2,41.96,59.85c-2.72,35.59-32.44,63.62-68.7,63.62
	c-35.1,0-63.54-26.36-68.36-60.28c-1.67-11.78,16.05-37.09,32.47-34.14c21.1,3.75,26.97,3.04,38.48-3.6
	c-0.03,4.63-5.1,13.45-11.09,15.69C169.67,83.89,175.29,60.19,177.47,41.32L177.47,41.32z M183.31,121.94
	c3.35,0,6.04,2.72,6.04,6.04c0,2.16-1.11,4.03-2.78,5.11c-23.93,19.84-47.41,20.15-70.38,0.11c-1.79-1.05-2.98-2.98-2.98-5.22
	c0-3.32,2.69-6.04,6.04-6.04c1.08,0,2.07,0.28,2.95,0.79l0,0l0,0c0.77,0.43,1.42,0.99,1.93,1.7c17.75,15.27,35.87,15.07,54.33-0.06
	c0.57-0.74,1.28-1.33,2.1-1.76l0,0C181.38,122.2,182.32,121.94,183.31,121.94L183.31,121.94z M179.94,83.04
	c5.13,0,9.3,4.17,9.3,9.31s-4.17,9.31-9.3,9.31c-5.13,0-9.3-4.17-9.3-9.31S174.81,83.04,179.94,83.04L179.94,83.04z M122.63,83.04
	c5.13,0,9.27,4.17,9.27,9.31s-4.14,9.31-9.27,9.31s-9.3-4.17-9.3-9.31S117.5,83.04,122.63,83.04L122.63,83.04z M92.83,38.03
	L92.83,38.03C76.76-3.71,39.75,6.08,34.62,37.83c-1.39,8.49,5.1,36.49-8.87,51.71c24.07-2.89,31.33-12.4,33.17-25.85
	c3.29-24.18,16.05-25.17,25.29-15.49h0.06c-9.56,13.39-15.14,29.77-15.14,47.45c0,45.21,36.61,81.84,81.77,81.84
	c45.14,0,81.77-36.64,81.77-81.84c0-17.76-5.67-34.22-15.31-47.65l0,0c9.24-9.68,22-8.68,25.32,15.49
	c1.81,13.45,9.1,22.96,33.15,25.82c-13.98-15.21-7.49-43.22-8.85-51.68c-5.16-31.78-42.13-41.55-58.24,0.17l0,0
	c-14.8-14.81-35.24-24.01-57.84-24.01C128.19,13.79,107.63,23.07,92.83,38.03L92.83,38.03z"/>
</svg>
