<?xml version="1.0" encoding="utf-8"?>
<!-- Generator: Adobe Illustrator 24.1.1, SVG Export Plug-In . SVG Version: 6.00 Build 0)  -->
<svg version="1.1" id="Layer_1" xmlns="http://www.w3.org/2000/svg" xmlns:xlink="http://www.w3.org/1999/xlink" x="0px" y="0px"
	 viewBox="0 0 34.82 69.98" style="enable-background:new 0 0 34.82 69.98;" xml:space="preserve">
<style type="text/css">
	.st0{fill-rule:evenodd;clip-rule:evenodd;fill:#FFFFFF;}
	.st1{fill-rule:evenodd;clip-rule:evenodd;fill:#E61665;}
</style>
<g>
	<path class="st0" d="M17.41,0L17.41,0c9.58,0,17.41,7.83,17.41,17.42v35.13c0,9.59-7.83,17.42-17.41,17.42l0,0
		C7.83,69.98,0,62.15,0,52.56V17.42C0,7.83,7.83,0,17.41,0L17.41,0z"/>
	<path class="st1" d="M19.39,8.6c4.34,0.96,7.83,4.99,7.83,9.17c-0.03,1.5-0.71,3.01-0.6,4.46c0.11,1.65,1.05,3.21,1.87,5.08
		c-1.84-1.25-3.52-2.64-5.08-4.09c-1.56,1.5-3.66,2.41-6.01,2.41c-2.33,0-4.45-0.91-5.98-2.41c-1.56,1.45-3.23,2.84-5.08,4.09
		c0.79-1.87,1.76-3.43,1.87-5.08c0.11-1.45-0.57-2.95-0.6-4.46c0-4.17,3.46-8.2,7.83-9.17l-0.2-0.43l-5.19,0.88V2.87l6.29,3.26
		c0.74-1.02,1.45-0.96,2.1,0l6.32-3.26v6.19l-5.19-0.88L19.39,8.6z M24.38,57.18v8.43c-0.11,1.87-4.57,2.13-4.93,0v-8.43h-4.08v8.43
		c-0.09,1.87-4.54,2.13-4.91,0v-8.43H6.07l3.6-22.16c-1.84,2.64-2.84,6.36-3.37,10.56c-1.56,2.81-3.91,1.45-4.37-0.03
		c0.6-9.25,4.93-18.87,15.48-19.3c10.55,0.43,14.89,10.05,15.48,19.3c-0.45,1.48-2.81,2.84-4.37,0.03c-0.6-4.57-1.7-8.54-3.86-11.21
		l3.69,22.82H24.38z"/>
</g>
</svg>
