<?xml version="1.0" encoding="utf-8"?>
<!-- Generator: Adobe Illustrator 24.1.1, SVG Export Plug-In . SVG Version: 6.00 Build 0)  -->
<svg version="1.1" id="Layer_1" xmlns="http://www.w3.org/2000/svg" xmlns:xlink="http://www.w3.org/1999/xlink" x="0px" y="0px"
	 viewBox="0 0 124 205.1" style="enable-background:new 0 0 124 205.1;" xml:space="preserve">
<style type="text/css">
	.st0{fill-rule:evenodd;clip-rule:evenodd;fill:none;stroke:#6C757D;stroke-width:9.9213;stroke-miterlimit:10;}
</style>
<g>
	<path class="st0" d="M111,88.7c3.5,3.5,5.6,8.2,5.6,13.6c0,5.6-2.5,10.7-6.4,14.2v0.1l-68.3,68.5l0,0c-3.5,4.6-9.1,7.7-15.4,7.7
		c-10.5,0-19.1-8.5-19.1-19.2c0-5.3,2.1-10,5.5-13.5l0,0C25.7,147.3,25.7,57.7,13,45.1c-3.5-3.5-5.6-8.2-5.6-13.7
		c0-10.6,8.5-19.2,19.1-19.2c5.3,0,10,2.1,13.5,5.5l0,0L111,88.7z"/>
</g>
</svg>
