<?xml version="1.0" encoding="utf-8"?>
<!-- Generator: Adobe Illustrator 24.1.1, SVG Export Plug-In . SVG Version: 6.00 Build 0)  -->
<svg version="1.1" id="Layer_1" xmlns="http://www.w3.org/2000/svg" xmlns:xlink="http://www.w3.org/1999/xlink" x="0px" y="0px"
	 viewBox="0 0 124 205.08" style="enable-background:new 0 0 124 205.08;" xml:space="preserve">
<style type="text/css">
	.st0{fill-rule:evenodd;clip-rule:evenodd;fill:#F6A316;}
</style>
<g>
	<path class="st0" d="M117.63,86.8c3.95,3.96,6.37,9.35,6.37,15.41c0,6.38-2.85,12.2-7.26,16.16v0.12l-77.61,77.79l0,0
		c-3.95,5.28-10.33,8.8-17.48,8.8C9.68,205.08,0,195.4,0,183.29c0-6.04,2.42-11.32,6.27-15.29l0,0
		c14.49-14.64,14.49-116.33,0.1-130.7C2.42,33.34,0,27.95,0,21.79C0,9.8,9.68,0,21.65,0c6.06,0,11.33,2.42,15.28,6.28l0,0
		L117.63,86.8z"/>
</g>
</svg>
