<?xml version="1.0" encoding="utf-8"?>
<!-- Generator: Adobe Illustrator 24.1.1, SVG Export Plug-In . SVG Version: 6.00 Build 0)  -->
<svg version="1.1" id="Layer_1" xmlns="http://www.w3.org/2000/svg" xmlns:xlink="http://www.w3.org/1999/xlink" x="0px" y="0px"
	 viewBox="0 0 221.9 155" style="enable-background:new 0 0 221.9 155;" xml:space="preserve">
<style type="text/css">
	.st0{fill-rule:evenodd;clip-rule:evenodd;fill:#465AC8;}
</style>
<g>
	<path class="st0" d="M9.7,80.4l-0.2-9.1l203.2-0.1c-0.7,10.6-7.2,9.5-17,9.5C166.2,80.5,22.9,81.7,9.7,80.4L9.7,80.4z M13.7,34.3
		c16.4,1.3,31.8,15.3,36.7,26.1c1.2,1.4,1.2-1.7,1,1.7c-5.7,0.9-37.6,1.2-42.2-0.3c-0.7-5.2-1.1-24.5,0.4-28.6
		C12.9,33,11.2,32.3,13.7,34.3L13.7,34.3z M107.8,61.6c0.5-17,1.9-18.8,18.9-19c46.4-0.5,26.7-11.4,46.9-2
		c9.5,4.4,32.7,13.7,36.4,21.3L107.8,61.6z M99.1,56.6l-0.8,5.4l-28.7,0.3c-6.4,0.1-6.6,0.7-8.1-1.2C47.6,37.4,40.3,30,10,24
		C9.7,12.3,18.4,6.8,28.4,13.4c7.5,4.9,7.9,10.7,22.1,13.1c17.7,3,44.7-6.6,52.9-16.4c7.2,0.9,40.1,16.3,48.3,20.2
		C141.4,38.9,96.4,20.8,99.1,56.6L99.1,56.6z M1.2,88.8c7.3,2.4,143,1.1,162.5,1.1c29.7,0,62.6,7.1,57.8-23.4
		c-2.2-13.7-8.4-17.1-18.8-22.3c-9.2-4.6-17.5-8.5-27-13.1c-5.5-2.6-67.3-31.3-72-31.2c-3.7,0.1-4.5,1.9-6.5,3.7
		c-8.3,7.6-25,13.6-37.5,14C40.1,18.3,42,9.9,31.4,4.4C19.9-1.5,9,1.6,3.6,11.3c-5.2,9.3-3.3,26.1-3.3,38
		C0.4,58.6-0.7,81.7,1.2,88.8L1.2,88.8z M2,129.3c-1.2-1.2-1.9-2.8-1.9-4.6c0-1.9,0.9-3.6,2.2-4.8v0l23-23.1l0,0
		c1.2-1.6,3.1-2.6,5.2-2.6c3.5,0,6.4,2.9,6.4,6.5c0,1.8-0.7,3.3-1.9,4.5l0,0l-12.9,13.1H86c3.5,0,6.4,2.9,6.4,6.5
		c0,3.5-2.9,6.4-6.4,6.4H22.2L35,144c1.2,1.2,1.9,2.8,1.9,4.6c0,3.5-2.9,6.4-6.4,6.4c-1.8,0-3.3-0.7-4.5-1.8l0,0L2,129.3z
		 M219.9,129.3c1.2-1.2,1.9-2.8,1.9-4.6c0-1.9-0.9-3.6-2.2-4.8v0l-23-23.1l0,0c-1.2-1.6-3.1-2.6-5.2-2.6c-3.5,0-6.4,2.9-6.4,6.5
		c0,1.8,0.7,3.3,1.8,4.5l0,0l12.9,13.1h-63.9c-3.5,0-6.4,2.9-6.4,6.5c0,3.5,2.9,6.4,6.4,6.4h63.8L186.9,144
		c-1.2,1.2-1.9,2.8-1.9,4.6c0,3.5,2.9,6.4,6.4,6.4c1.8,0,3.3-0.7,4.5-1.8l0,0L219.9,129.3z"/>
</g>
</svg>
