<?xml version="1.0" encoding="utf-8"?>
<!-- Generator: Adobe Illustrator 24.1.1, SVG Export Plug-In . SVG Version: 6.00 Build 0)  -->
<svg version="1.1" id="Layer_1" xmlns="http://www.w3.org/2000/svg" xmlns:xlink="http://www.w3.org/1999/xlink" x="0px" y="0px"
	 viewBox="0 0 85.04 34.02" style="enable-background:new 0 0 85.04 34.02;" xml:space="preserve">
<style type="text/css">
	.st0{opacity:0.5;fill-rule:evenodd;clip-rule:evenodd;fill:#FFFFFF;}
	.st1{opacity:0.5;fill-rule:evenodd;clip-rule:evenodd;fill:#E30D13;}
	.st2{opacity:0.5;fill-rule:evenodd;clip-rule:evenodd;fill:#272E7F;}
	.st3{fill-rule:evenodd;clip-rule:evenodd;fill:#353E8D;}
	.st4{fill-rule:evenodd;clip-rule:evenodd;fill:#FFFFFF;}
</style>
<rect x="2.82" y="2.49" class="st0" width="79.37" height="29.03"/>
<polygon class="st1" points="38.53,2.49 46.48,2.49 46.48,14.08 82.19,14.08 82.19,19.93 46.48,19.93 46.48,31.52 38.53,31.52 
	38.53,19.93 2.82,19.93 2.82,14.08 38.53,14.08 "/>
<polygon class="st1" points="55.49,12.26 49.37,12.26 76.08,2.49 82.19,2.49 "/>
<polygon class="st2" points="48.97,2.49 48.89,11.44 73.34,2.49 "/>
<polygon class="st2" points="82.22,12.26 82.27,5.75 64.46,12.26 "/>
<polygon class="st1" points="29.55,21.75 35.67,21.75 8.96,31.52 2.85,31.52 "/>
<polygon class="st2" points="36.07,31.52 36.15,22.58 11.7,31.52 "/>
<polygon class="st2" points="2.82,21.75 2.77,28.27 20.58,21.75 "/>
<polygon class="st2" points="2.82,12.26 2.77,5.75 20.58,12.26 "/>
<polygon class="st1" points="23.49,12.26 29.6,12.26 2.82,2.49 2.82,4.7 "/>
<polygon class="st2" points="36.05,2.49 36.13,11.44 11.68,2.49 "/>
<polygon class="st2" points="82.19,21.75 82.25,28.27 64.43,21.75 "/>
<polygon class="st1" points="61.53,21.75 55.42,21.75 82.19,31.52 82.19,29.31 "/>
<polygon class="st2" points="48.97,31.52 48.89,22.58 73.34,31.52 "/>
<path class="st3" d="M8.5,2.83c-3.12,0-5.67,2.55-5.67,5.67v17.01c0,3.12,2.55,5.67,5.67,5.67h68.03c3.12,0,5.67-2.55,5.67-5.67V8.5
	c0-3.12-2.55-5.67-5.67-5.67H8.5z M8.5,0h68.03c4.68,0,8.5,3.82,8.5,8.5v17.01c0,4.68-3.82,8.5-8.5,8.5H8.5
	c-4.68,0-8.5-3.82-8.5-8.5V8.5C0,3.82,3.82,0,8.5,0z"/>
<path class="st4" d="M34.97,22.76l5.72,0.75c-0.89,3.32-2.56,5.91-4.99,7.74c-2.43,1.83-5.53,2.76-9.32,2.76
	c-4.76,0-8.53-1.47-11.32-4.4c-2.79-2.92-4.18-7.04-4.18-12.33c0-5.47,1.4-9.72,4.22-12.74C17.93,1.51,21.59,0,26.08,0
	c4.35,0,7.9,1.48,10.66,4.44c2.76,2.97,4.14,7.14,4.14,12.51c0,0.33-0.01,0.82-0.03,1.47h-24.3c0.21,3.57,1.22,6.32,3.04,8.22
	c1.81,1.9,4.09,2.85,6.8,2.85c2.02,0,3.75-0.53,5.18-1.6C33,26.82,34.13,25.11,34.97,22.76 M16.86,13.9h18.17
	c-0.24-2.75-0.94-4.8-2.09-6.17c-1.75-2.13-4.03-3.2-6.83-3.2c-2.54,0-4.66,0.85-6.39,2.55C18,8.77,17.05,11.05,16.86,13.9z
	 M47.68,33.32V0.69h4.97v4.63C55.04,1.77,58.5,0,63.01,0c1.97,0,3.77,0.36,5.42,1.06c1.65,0.7,2.88,1.63,3.7,2.78
	c0.82,1.14,1.39,2.5,1.72,4.08c0.2,1.03,0.3,2.82,0.3,5.38v20.04h-5.53V13.5c0-2.25-0.21-3.94-0.64-5.05
	c-0.43-1.11-1.19-2-2.28-2.67c-1.09-0.66-2.38-1-3.85-1c-2.35,0-4.37,0.74-6.08,2.24c-1.71,1.49-2.56,4.33-2.56,8.5v17.8H47.68z"/>
</svg>
