<?xml version="1.0" encoding="utf-8"?>
<!-- Generator: Adobe Illustrator 24.1.1, SVG Export Plug-In . SVG Version: 6.00 Build 0)  -->
<svg version="1.1" id="Layer_1" xmlns="http://www.w3.org/2000/svg" xmlns:xlink="http://www.w3.org/1999/xlink" x="0px" y="0px"
	 viewBox="0 0 85.04 34.02" style="enable-background:new 0 0 85.04 34.02;" xml:space="preserve">
<style type="text/css">
	.st0{opacity:0.5;fill-rule:evenodd;clip-rule:evenodd;fill:#FFFFFF;}
	.st1{opacity:0.5;fill-rule:evenodd;clip-rule:evenodd;fill:#332884;}
	.st2{opacity:0.5;fill-rule:evenodd;clip-rule:evenodd;fill:#E30D13;}
	.st3{fill-rule:evenodd;clip-rule:evenodd;fill:#353E8D;}
	.st4{fill-rule:evenodd;clip-rule:evenodd;fill:#FFFFFF;}
</style>
<rect x="2.83" y="2.83" class="st0" width="79.37" height="9.68"/>
<rect x="2.83" y="12.51" class="st1" width="79.37" height="9.68"/>
<rect x="2.83" y="22.19" class="st2" width="79.37" height="9.68"/>
<path class="st3" d="M8.5,2.83c-3.12,0-5.67,2.55-5.67,5.67v17.01c0,3.12,2.55,5.67,5.67,5.67h68.03c3.12,0,5.67-2.55,5.67-5.67V8.5
	c0-3.12-2.55-5.67-5.67-5.67H8.5z M8.5,0h68.03c4.68,0,8.5,3.82,8.5,8.5v17.01c0,4.68-3.82,8.5-8.5,8.5H8.5
	c-4.68,0-8.5-3.82-8.5-8.5V8.5C0,3.82,3.82,0,8.5,0z"/>
<path class="st4" d="M18.88,33.32V0.69h4.97v5c1.27-2.32,2.44-3.85,3.52-4.58C28.45,0.37,29.63,0,30.92,0
	c1.87,0,3.76,0.59,5.69,1.75l-1.97,5.1c-1.34-0.75-2.68-1.13-4.02-1.13c-1.21,0-2.28,0.37-3.24,1.09c-0.95,0.72-1.63,1.73-2.04,3.02
	c-0.62,1.96-0.92,4.11-0.92,6.44v17.05H18.88z M61.19,33.32v-4.85c-2.54,3.7-5.97,5.54-10.32,5.54c-1.92,0-3.71-0.37-5.38-1.1
	c-1.67-0.74-2.9-1.67-3.71-2.78c-0.81-1.12-1.37-2.48-1.7-4.1c-0.22-1.09-0.34-2.81-0.34-5.16V0.69h5.53v18.06
	c0,2.88,0.12,4.83,0.34,5.83c0.35,1.46,1.08,2.59,2.21,3.42c1.12,0.83,2.5,1.25,4.16,1.25c1.66,0,3.21-0.42,4.65-1.27
	c1.45-0.85,2.47-2.01,3.08-3.47c0.6-1.46,0.9-3.58,0.9-6.36V0.69h5.53v32.63H61.19z"/>
</svg>
