<?xml version="1.0" encoding="utf-8"?>
<!-- Generator: Adobe Illustrator 24.1.1, SVG Export Plug-In . SVG Version: 6.00 Build 0)  -->
<svg version="1.1" id="Layer_1" xmlns="http://www.w3.org/2000/svg" xmlns:xlink="http://www.w3.org/1999/xlink" x="0px" y="0px"
	 viewBox="0 0 85.04 34.02" style="enable-background:new 0 0 85.04 34.02;" xml:space="preserve">
<style type="text/css">
	.st0{opacity:0.5;fill-rule:evenodd;clip-rule:evenodd;fill:#429DD7;}
	.st1{opacity:0.5;fill-rule:evenodd;clip-rule:evenodd;fill:#F4E600;}
	.st2{fill-rule:evenodd;clip-rule:evenodd;fill:#353E8D;}
	.st3{fill-rule:evenodd;clip-rule:evenodd;fill:#FFFFFF;}
</style>
<rect x="2.36" y="2.63" class="st0" width="79.84" height="14.27"/>
<rect x="2.36" y="16.91" class="st1" width="79.84" height="14.27"/>
<path class="st2" d="M8.5,2.84c-3.12,0-5.67,2.55-5.67,5.67v17.01c0,3.12,2.55,5.67,5.67,5.67h68.03c3.12,0,5.67-2.55,5.67-5.67V8.5
	c0-3.12-2.55-5.67-5.67-5.67H8.5z M8.5,0h68.03c4.68,0,8.5,3.82,8.5,8.5v17.01c0,4.68-3.82,8.5-8.5,8.5H8.5
	c-4.68,0-8.5-3.82-8.5-8.5V8.5C0,3.82,3.82,0,8.5,0z"/>
<path class="st3" d="M46.53,33.24V0H52v14.07L64.94,0.96h7.07L59.69,12.95l13.56,20.29h-6.74L55.79,16.74L52,20.43v12.8H46.53z
	 M33,33.24v-4.8c-2.51,3.66-5.91,5.48-10.21,5.48c-1.9,0-3.67-0.36-5.32-1.09c-1.65-0.74-2.87-1.65-3.67-2.75
	c-0.8-1.11-1.36-2.46-1.68-4.05c-0.22-1.08-0.33-2.78-0.33-5.1V0.96h5.47v17.86c0,2.85,0.11,4.78,0.33,5.76
	c0.34,1.44,1.07,2.56,2.19,3.38c1.11,0.82,2.48,1.23,4.12,1.23c1.64,0,3.17-0.41,4.6-1.25c1.43-0.84,2.45-1.99,3.05-3.43
	c0.59-1.44,0.89-3.55,0.89-6.29V0.96h5.47v32.28H33z"/>
</svg>
