<?xml version="1.0" encoding="UTF-8"?>
<!DOCTYPE svg PUBLIC "-//W3C//DTD SVG 1.1//EN" "http://www.w3.org/Graphics/SVG/1.1/DTD/svg11.dtd">
<!-- Creator: CorelDRAW 2017 -->
<svg xmlns="http://www.w3.org/2000/svg" xml:space="preserve" width="22.7374mm" height="9.0481mm" version="1.1" style="shape-rendering:geometricPrecision; text-rendering:geometricPrecision; image-rendering:optimizeQuality; fill-rule:evenodd; clip-rule:evenodd"
viewBox="0 0 935 372"
 xmlns:xlink="http://www.w3.org/1999/xlink">
 <defs>
  <style type="text/css">
   <![CDATA[
    .fil2 {fill:#008CD2}
    .fil3 {fill:#009650}
    .fil1 {fill:#C81E82}
    .fil4 {fill:#F0F000}
    .fil5 {fill:#FF141E}
    .fil0 {fill:#C8C8BE;fill-rule:nonzero}
   ]]>
  </style>
 </defs>
 <g id="Слой_x0020_1">
  <metadata id="CorelCorpID_0Corel-Layer"/>
  <path class="fil0" d="M858 369l0 0c-119,11 -208,-14 -292,-37 -130,-36 -251,-70 -460,38 -2,1 -4,0 -6,-2 -1,-2 0,-4 1,-5 223,-169 346,-120 487,-65 77,30 160,63 268,62 2,0 4,2 4,4 0,2 -2,4 -4,4zm-6 -335c31,8 55,30 69,61 14,30 18,67 8,105 -10,38 -31,69 -57,89 -27,20 -59,28 -90,21l0 0c-31,-8 -55,-30 -69,-61 -14,-30 -18,-67 -8,-105l0 0c10,-38 31,-69 57,-89 27,-20 59,-28 90,-21l0 0zm-264 -34l1 0c25,3 46,18 60,40 14,22 20,50 17,80l0 1c-4,30 -17,57 -36,75 -19,18 -43,28 -69,25l-1 0c-25,-3 -46,-18 -60,-40 -14,-22 -20,-50 -17,-80l0 -1c4,-30 17,-57 36,-75 19,-18 43,-28 69,-25zm-227 2l1 0c21,-2 41,6 56,21 15,15 26,37 29,61l0 2c2,25 -4,49 -16,68 -12,18 -31,31 -52,33l-1 0c-21,2 -41,-6 -56,-21 -15,-15 -26,-37 -29,-61l0 -2c-2,-25 4,-49 16,-68 12,-18 31,-31 52,-33l0 0zm-191 72l1 0c18,-6 37,-2 54,8 16,10 29,27 36,48l0 1c7,22 6,43 -2,62 -8,18 -21,33 -40,39l-1 0c-18,6 -37,2 -54,-8 -16,-10 -29,-27 -36,-48l0 -1c-7,-22 -6,-43 2,-62 8,-18 21,-33 40,-39l0 0zm-146 128c14,-10 32,-13 49,-9 17,4 33,14 45,30 12,16 17,35 16,52 -1,18 -9,34 -24,44 -14,10 -32,13 -49,9 -17,-4 -33,-14 -45,-30 -12,-16 -17,-35 -16,-52 1,-18 9,-34 24,-44z"/>
  <path class="fil1" d="M847 56c-31,-8 -60,2 -82,22 -23,19 -40,48 -47,76l0 1 0 1c-7,29 -6,62 5,90 11,28 31,50 62,58l0 0c29,7 55,-1 77,-17 26,-20 45,-51 53,-81l0 0c7,-29 6,-62 -5,-90 -11,-28 -31,-50 -62,-58l0 0z"/>
  <path class="fil2" d="M586 23c-22,-3 -42,6 -57,21 -18,17 -30,43 -33,67l0 1c-3,23 2,48 13,68 11,20 28,35 52,37l1 0c23,3 42,-6 57,-21 18,-17 30,-43 33,-67l0 -1c3,-23 -2,-48 -13,-68 -11,-20 -28,-35 -52,-37l-1 0z"/>
  <path class="fil3" d="M363 23c-19,2 -33,13 -42,27 -11,17 -16,39 -14,60l0 1c2,19 10,38 23,51 12,13 29,22 48,20l1 0c19,-2 33,-13 42,-27 11,-17 16,-39 14,-60l0 -1c-2,-19 -10,-38 -23,-51 -12,-13 -29,-22 -48,-20l-1 0z"/>
  <path class="fil4" d="M178 94c-16,5 -26,17 -32,31 -7,16 -7,36 -2,53l0 1c5,16 15,30 29,39 13,9 29,13 45,8l1 0c16,-5 26,-17 32,-31 7,-16 7,-36 2,-53l0 -1c-5,-16 -15,-30 -29,-39 -13,-9 -29,-13 -45,-8l-1 0z"/>
  <path class="fil5" d="M36 214l0 0c-13,9 -19,23 -19,38 -1,15 5,31 14,43l0 0c9,12 22,21 37,25 14,4 29,2 42,-7l0 0c13,-9 19,-23 19,-38 1,-15 -5,-31 -14,-43l0 0c-9,-12 -22,-21 -37,-25 -14,-4 -29,-2 -41,7z"/>
 </g>
</svg>
