<?xml version="1.0" encoding="utf-8"?>
<!-- Generator: Adobe Illustrator 24.1.1, SVG Export Plug-In . SVG Version: 6.00 Build 0)  -->
<svg version="1.1" id="Layer_1" xmlns="http://www.w3.org/2000/svg" xmlns:xlink="http://www.w3.org/1999/xlink" x="0px" y="0px"
	 viewBox="0 0 64.4 25.6" style="enable-background:new 0 0 64.4 25.6;" xml:space="preserve">
<style type="text/css">
	.st0{fill:#FFA500;}
	.st1{fill:#FEFEFE;}
	.st2{fill-rule:evenodd;clip-rule:evenodd;fill:#C81E82;}
	.st3{fill-rule:evenodd;clip-rule:evenodd;fill:#008CD2;}
	.st4{fill-rule:evenodd;clip-rule:evenodd;fill:#009650;}
	.st5{fill-rule:evenodd;clip-rule:evenodd;fill:#F0F000;}
	.st6{fill-rule:evenodd;clip-rule:evenodd;fill:#FF141E;}
</style>
<g>
	<path class="st0" d="M59.1,25.5L59.1,25.5c-8.2,0.8-14.3-0.9-20.2-2.6c-9-2.5-17.3-4.8-31.7,2.6c-0.1,0.1-0.3,0-0.4-0.1
		c-0.1-0.1,0-0.3,0.1-0.4c15.4-11.6,23.9-8.3,33.6-4.5c5.3,2.1,11.1,4.3,18.5,4.3c0.2,0,0.3,0.1,0.3,0.3
		C59.4,25.3,59.3,25.4,59.1,25.5z"/>
	<path class="st1" d="M58.7,2.4c2.1,0.5,3.8,2.1,4.8,4.2c1,2.1,1.2,4.6,0.6,7.3c-0.7,2.6-2.1,4.8-3.9,6.1c-1.8,1.4-4,2-6.2,1.4l0,0
		c-2.1-0.5-3.8-2.1-4.8-4.2c-1-2.1-1.2-4.6-0.6-7.2l0,0c0.7-2.6,2.1-4.7,3.9-6.1C54.4,2.4,56.6,1.8,58.7,2.4L58.7,2.4L58.7,2.4z"/>
	<path class="st1" d="M40.5,0L40.5,0c1.8,0.2,3.2,1.3,4.2,2.8c0.9,1.5,1.4,3.4,1.2,5.5l0,0.1c-0.3,2.1-1.2,3.9-2.5,5.2
		c-1.3,1.3-3,1.9-4.7,1.7h0c-1.7-0.2-3.2-1.3-4.1-2.8C33.5,11,33.1,9.1,33.3,7l0-0.1c0.3-2.1,1.2-3.9,2.5-5.2
		C37.1,0.5,38.8-0.2,40.5,0L40.5,0z"/>
	<path class="st1" d="M24.9,0.2L24.9,0.2c1.5-0.1,2.9,0.4,4,1.5c1.1,1,1.8,2.5,2,4.2l0,0.1c0.2,1.8-0.3,3.4-1.1,4.7
		c-0.9,1.3-2.1,2.1-3.6,2.3L26,13c-1.5,0.1-2.8-0.4-3.9-1.5c-1.1-1-1.8-2.5-2-4.2l0-0.1c-0.2-1.8,0.3-3.4,1.1-4.7
		C22.1,1.2,23.4,0.3,24.9,0.2L24.9,0.2L24.9,0.2z"/>
	<path class="st1" d="M11.7,5.1L11.7,5.1C13,4.7,14.4,5,15.5,5.7c1.1,0.7,2,1.8,2.5,3.3L18,9c0.5,1.5,0.4,3-0.1,4.2
		c-0.5,1.3-1.5,2.3-2.8,2.7l-0.1,0c-1.3,0.4-2.6,0.2-3.7-0.5c-1.1-0.7-2-1.8-2.5-3.3l0-0.1c-0.5-1.5-0.4-3,0.1-4.2
		C9.5,6.6,10.4,5.6,11.7,5.1L11.7,5.1z"/>
	<path class="st1" d="M1.6,14c1-0.7,2.2-0.9,3.4-0.6c1.2,0.3,2.3,1,3.1,2.1s1.2,2.4,1.1,3.6c-0.1,1.2-0.6,2.3-1.6,3S5.4,23,4.2,22.7
		c-1.2-0.3-2.3-1-3.1-2.1C0.3,19.5-0.1,18.2,0,17C0.1,15.8,0.7,14.7,1.6,14z"/>
	<path class="st2" d="M58.4,3.9c-2.1-0.5-4.1,0.2-5.7,1.5c-1.6,1.3-2.7,3.3-3.2,5.3v0l0,0c-0.5,2-0.4,4.3,0.4,6.2
		c0.7,1.9,2.1,3.5,4.3,4h0c2,0.5,3.8-0.1,5.3-1.2c1.8-1.3,3.1-3.5,3.6-5.6l0,0c0.5-2,0.4-4.3-0.4-6.2C61.9,6,60.5,4.4,58.4,3.9
		L58.4,3.9z"/>
	<path class="st3" d="M40.4,1.6C38.9,1.4,37.5,2,36.5,3c-1.2,1.2-2,3-2.3,4.6l0,0.1c-0.2,1.6,0.1,3.3,0.9,4.7c0.7,1.4,2,2.4,3.6,2.6
		h0c1.5,0.2,2.9-0.4,3.9-1.4c1.2-1.2,2-3,2.3-4.6l0-0.1c0.2-1.6-0.1-3.3-0.9-4.7C43.3,2.8,42.1,1.8,40.4,1.6L40.4,1.6L40.4,1.6z"/>
	<path class="st4" d="M25.1,1.6c-1.3,0.1-2.3,0.9-2.9,1.9c-0.8,1.2-1.1,2.7-1,4.1l0,0.1c0.1,1.3,0.7,2.6,1.6,3.5
		c0.8,0.9,2,1.5,3.3,1.4l0.1,0c1.3-0.1,2.3-0.9,2.9-1.9c0.8-1.2,1.1-2.7,1-4.1l0-0.1c-0.1-1.3-0.7-2.6-1.6-3.5
		C27.6,2,26.5,1.5,25.1,1.6L25.1,1.6z"/>
	<path class="st5" d="M12.2,6.5c-1.1,0.4-1.8,1.2-2.2,2.1c-0.5,1.1-0.5,2.5-0.1,3.7l0,0.1c0.4,1.1,1.1,2.1,2,2.7
		c0.9,0.6,2,0.9,3.1,0.5l0,0c1.1-0.4,1.8-1.2,2.2-2.1c0.5-1.1,0.5-2.5,0.1-3.7l0-0.1c-0.4-1.1-1.1-2.1-2-2.7
		C14.5,6.4,13.4,6.1,12.2,6.5L12.2,6.5z"/>
	<path class="st6" d="M2.5,14.8L2.5,14.8c-0.9,0.7-1.3,1.6-1.3,2.6c0,1,0.3,2.1,0.9,3l0,0c0.6,0.8,1.5,1.5,2.5,1.8
		c1,0.3,2,0.2,2.9-0.5l0,0c0.9-0.6,1.3-1.6,1.3-2.6c0-1-0.3-2.1-0.9-3l0,0c-0.6-0.8-1.5-1.5-2.5-1.8C4.4,14.1,3.4,14.2,2.5,14.8
		L2.5,14.8z"/>
</g>
</svg>
