<?xml version="1.0" encoding="utf-8"?>
<!-- Generator: Adobe Illustrator 24.1.1, SVG Export Plug-In . SVG Version: 6.00 Build 0)  -->
<svg version="1.1" id="Layer_1" xmlns="http://www.w3.org/2000/svg" xmlns:xlink="http://www.w3.org/1999/xlink" x="0px" y="0px"
	 viewBox="0 0 139.9 32.4" style="enable-background:new 0 0 139.9 32.4;" xml:space="preserve">
<style type="text/css">
	.st0{fill:#FFA500;}
	.st1{fill:#FEFEFE;}
</style>
<g id="Слой_x0020_1">
	<path class="st0" d="M24.4,23.4c0-0.6-1.7-2-3.7-3.7c-1.7-1.5-3.8-3.2-5.8-4.8c-3.2-2.4-6.2-4.1-6.8-4.6c1.8-1.1,4.5-2.9,6.8-4.3
		c2.9-1.7,5.5-3.4,5.6-3.8c0-0.2-0.4-0.9-0.8-0.9c-0.4,0-4.3,2.6-6.1,3.7C9.9,7.2,8.5,8,6.8,9.1C6.4,8.9,6.5,8.8,6.1,8.5
		c0-1,0.2-2.8,0.1-4.3c-0.1-1.9-0.4-4-1.7-4c-0.4,0-0.6,0.5-0.7,0.9C3.7,1.8,3.9,2.6,3.9,3.6c0,1.3,0.1,2-0.1,3.1
		C3.4,7.2,3,8,2.8,8.7c-0.2,0.7,0,1.5-0.1,1.8C1.9,10.7,0,11.3,0,12.4c0,1.8,2,1.4,2.7,1.7C2.8,14.8,3,15.4,3,16.4v4.3
		c0,2,0.4,4.2,1.5,4.2c1.3,0,1.7-1.4,1.7-2.4c0-0.8,0-1.7-0.1-3.9c-0.1-2.2,0-5.5,0.1-6.1c2.6,1.6,4.5,2.8,6.3,4
		c3.2,2.2,5.3,3.9,6.8,5.2c2.4,2.2,3.1,3.3,3.9,3.3C24,25,24.4,24,24.4,23.4L24.4,23.4z"/>
	<path class="st0" d="M101.8,12.9c0-4.8-6-5.5-10.8-5.7c-1.9-0.1-6.9,0.7-9.9,0.7c-1.7,0-2.7-0.1-2.7-1.7c0-1.5,3-4.6,5.8-4.6
		c0.7,0,1.5,0.2,2.2,0.5c1.2,0.4,1.9,1,2.4,0.9c0.4-0.1,0.5-0.5,0.6-0.9c0.1-0.7-1.1-1.1-1.9-1.4C86.3,0.3,84.8,0,83.7,0
		c-3.3-0.1-7.2,4-7.2,6.9c0,2.2,2.4,2.8,3.9,2.8c1.5,0,7.2-0.6,10.9-0.6c4.1,0,8.1,1.6,8.1,3.8c0,1.9-1.5,4.3-3.3,6.1
		c-2.9,2.6-6.2,4.2-10.8,4.5c-2.2,0.1-5.6-0.4-8.1-1.5c-2.1-1-4.1-2.4-4.1-3.7c0-2.2,5.4-5.3,10.2-5.3c5,0,6,2.1,6,2.7
		c0,1.1-2.6,1.8-3,1.8c-0.2,0-0.5-0.2-0.6-0.5c-0.1-0.3,0.3-0.5,0.3-0.8c-0.1-0.4-0.5-0.6-0.9-0.6c-0.9,0.1-2.3,0.9-2.3,2.2
		c0,0.9,1.2,2.2,2.5,2.2c0.9,0,6.3-0.8,6.3-4.7c0-2.8-4.1-4.1-7.6-4.1c-7.7,0-12.7,4.4-12.7,7.2c0,1.8,2.3,3.6,4.8,4.8
		c2.9,1.4,6.5,1.9,8.9,1.9c5.5,0,9.8-1.8,12.8-4.8C100.2,18.1,101.9,15.1,101.8,12.9L101.8,12.9z"/>
	<path class="st1" d="M32.2,8.5c0.1-0.5-0.5-0.8-1-0.9c-0.3-0.1-0.8-0.1-1.2-0.1c0.1-0.3,0.2-0.6,0.2-1c0.1-0.8-0.6-1.8-1.7-1.8
		C27.3,4.7,27,7,26.6,8c-0.1-0.1-1-0.9-1.8-0.8c-0.7,0.2-1.3,0.8-1.3,1.4c0.1,0.7,0.7,1,1.4,1.6c-0.7,0.5-1.9,1.8-1.9,1.9
		c0,0.3,0.1,0.9,1.2,0.9c1.5,0,2.2-0.9,3.1-1.6c0.9,0.7,1.8,1.9,2.8,1.9c0.8,0,1.2-0.6,1.2-1.3c0-0.9-0.5-1-1.1-2
		C30.9,9.4,32.1,9,32.2,8.5L32.2,8.5z M32.2,23.5c0-0.2-0.2-0.5-0.5-0.5c-0.4,0-0.9,1.4-1.9,1.4c-1.4,0-2-1.9-2-3.7
		c0-1.7,0.1-4.7,0.2-5.6c0.1-1.2,0-1.6-0.7-1.6c-0.6,0-1,4.9-1,6.8c0,2.7,0.6,5.2,3.5,5.3C31,25.6,32.2,24.6,32.2,23.5z M29.2,6.4
		c0,0.9-0.5,1.4-0.9,1.9l-0.7-0.1c0.2-0.8,0.4-2.5,0.9-2.5C28.9,5.7,29.2,6,29.2,6.4L29.2,6.4z M30.4,8.7C30.4,9,29.9,9,29.7,9
		c-0.1-0.1-0.2-0.2-0.1-0.4C29.8,8.6,30.4,8.5,30.4,8.7z M30.5,12c0,0.2-0.2,0.3-0.4,0.3c-0.5-0.1-1.4-1.2-1.7-1.6
		c0.2-0.2,0.4-0.3,0.6-0.4C29.5,10.5,30.3,11.2,30.5,12z M26.6,8.9c0.1,0.3-0.1,0.4-0.3,0.6c-0.4-0.2-1.7-0.6-1.7-1.1
		c0-0.2,0.1-0.2,0.2-0.2C25.2,8.2,26,8.6,26.6,8.9L26.6,8.9z M26.3,11.1c-0.3,0.5-1.1,0.9-1.5,0.9c-0.1,0-0.2,0-0.2-0.1
		c0.1-0.3,1-0.9,1.1-1.1C26,10.9,26.1,11,26.3,11.1L26.3,11.1z M46.1,16.2c-0.1-0.8-1-1.2-1.6-1.6c0-0.6-0.1-2.1,0-3.5
		c0-0.9,0.1-1.6,0.1-2.2c0-1-0.2-1.3-0.9-1.4c-0.6-0.1-0.6,3.2-0.7,3.9c-0.1,1.9-0.1,1.7-0.1,2.6c-0.7-0.1-1.8-0.4-2.6-0.4
		c-2.6,0-7.6,2.8-7.6,7.9c0,2.3,1.2,4,4.3,4c2.3,0,4.9-1.2,4.9-3.6c0-0.9-1.3-2.5-3.1-2.5c-0.5,0-1.4,0.5-1.4,0.8
		c0,0.3,0.2,0.5,0.5,0.6c0.3,0.1,0.6-0.5,1.1-0.5c0.7,0,1.9,0.9,1.9,1.8c0,1.7-2.6,2.2-3.5,2.2c-1.9,0-3.4-0.9-3.4-3.5
		c0-2.4,2.7-6.1,6.5-6.1c1.3,0,2.1,0.3,2.6,0.7c0.1,0.6,0,1.3,0.1,2.1c0.1,1,0.1,1.4,0.2,2.4c0.1,1.3,0,3.3,0.1,4.2
		c0.1,0.5,0.3,0.8,0.7,0.8c0.5,0.1,0.8-0.6,0.8-1.1c0-0.5,0-1.7-0.1-2.3c-0.1-1,0-1.1-0.2-2.9c-0.1-0.9,0-1.8-0.1-2.5
		c0.2,0,0.3,0.1,0.5,0.2c0.3,0.2,0.3,0.5,0.6,0.5C45.9,16.7,46,16.5,46.1,16.2L46.1,16.2z M50.9,9.8c0-1.2-0.2-2.5-1.6-2.5
		c-0.2,0-0.6,0.5-0.5,0.9c0.1,0.5,0.5,0.7,0.6,1.9c0.1,1.4-0.9,2-0.9,2.6c0,0.5,0.2,0.6,0.5,0.5C49.4,13.2,50.9,11.2,50.9,9.8z
		 M65.5,20.2c0-2-2.6-3.1-4.6-3.1c-1.1,0-5.8,0.7-6.3,0.7c-0.7,0-1-0.1-1-0.6c0-0.5,0.9-1.2,2-1.8c0.7-0.4,1.5-0.7,1.9-0.8
		c0.5-0.1,0.9,0.7,1.2,0.6c0.3-0.1,0.5-0.2,0.6-0.5c0.1-0.7-0.8-1.3-1.5-1.3c-0.8,0-1.7,0.4-2.6,0.9c-1.7,0.9-3.1,2.3-3.1,3.1
		c0,0.8,1.4,1.5,2.5,1.4c1.1-0.1,5.7-0.6,6.1-0.6c0.5,0,2.9,0.3,3,1.9c0.1,2.8-6,3.7-7.7,3.7c-1.6,0-3.3-0.4-3.3-1.2
		c0-1.3,2.4-1.8,3.2-1.8c0.5,0,1.8,0.4,1.8,0.8c-0.1,0.3-0.9,0.4-0.9,0.8c0,0.3,0.3,0.5,0.6,0.6c0.6,0.1,2.4-0.7,2.4-1.9
		c0-1.1-2.6-1.3-4-1.3c-2.1,0-4.3,1.7-4.3,2.8c0,1.7,2.1,2.4,4.3,2.4C61.5,25.1,65.5,22.8,65.5,20.2L65.5,20.2z"/>
	<path class="st1" d="M113.5,12.6c-0.1-0.3-0.2-0.5-0.5-0.5c-0.9,0-1.9-0.1-3.9-0.2c-1.4,0-2.8,0.1-3.4,0.1c0-0.4,0.1-1.4,0.1-2.1
		c0-0.8,0-1.7-0.7-1.7c-0.6,0-0.8,1-0.8,1.7c0,0.7-0.1,1.7-0.2,2.1c-0.4,0-1.1,0.1-1.7,0.1c-0.6,0-0.9,0-1.3,0.1
		c-0.3,0-0.5,0.4-0.6,0.7c0,0.5,0.7,0.5,1.5,0.5c0.7,0,1.4,0,1.9-0.1c-0.1,1.3,0,3.9,0,5.1c0.1,2.4,0.3,6.7,2.9,6.7
		c0.8,0,2.3-0.8,3-2c0.3-0.5,0.5-1.1,0.5-1.7c0-0.2-0.3-0.6-0.6-0.7c-0.5-0.1-0.7,1.1-1,1.7c-0.3,0.7-1,1.5-1.7,1.5
		c-1.3,0-1.7-4.5-1.7-6.2c0-1.8-0.1-3.4,0.1-4.5c1.2,0,2.2-0.1,3.2-0.1c1.4,0.1,2.7,0.1,3.2,0.2c0.4,0,0.5,0.4,0.7,0.4
		C113,13.6,113.5,13,113.5,12.6L113.5,12.6L113.5,12.6z M125,23c0-0.2-0.2-0.4-0.4-0.4c-0.4,0-1.9,1-3.9,1.1
		c-2.7,0.1-4.1-0.5-5.1-1.2c1.1-0.9,2.1-2,3.7-3.5c1.7-1.5,4.6-3.7,4.5-4.2c0-0.2-0.2-0.5-0.4-0.4c-0.2,0-0.4,0-0.6,0.1
		c-0.4-0.5-1.2-1.2-3.7-1.1c-0.9,0-2.4,0.3-3.6,1.1c-1.7,1.1-3.1,3-3.1,5.1c0,0.7,0.8,2.7,1.1,3.1c-0.5,0.6-1.3,1.5-1.3,1.7
		c0.1,0.3,0,0.1,0,0.5c0.3,0,0.3,0.1,0.6,0.1c0.7,0,1-0.7,1.5-1.4c0.7,0.4,2.2,1.3,6.2,1.3C123.2,24.9,124.9,23.6,125,23L125,23z
		 M122.2,15c-0.8,0.9-1.9,1.8-3.6,3.4c-1.5,1.4-3.1,2.7-3.6,3.1c-0.4-0.6-1-1.9-1-2.2c0-1.4,0.8-3,2.3-4c0.9-0.6,2.1-1,3.5-1
		C121.3,14.4,121.7,14.7,122.2,15z M139.9,17.9c0-2.9-3.3-4.1-6.3-4.1c-2.4,0-4.3,0.8-5.1,1.1c0-0.4,0-0.8,0.1-1.2
		c0.1-0.6-0.3-1-1.1-1c-0.8,0-1,2.4-1,3.2c-0.5,0.4-2.7,1.4-2.8,3.1c0,0.2,0.2,0.5,0.5,0.5c0.2,0,0.5-0.6,1-1.2
		c0.4-0.5,1-0.9,1.3-1.1c0,0.5,0.1,1.8,0.1,2.9c0,1.4-0.1,2.3-0.1,3.6c0,1.5-0.1,3.9-0.1,5.5c-0.1,2,0,3,0.9,3c0.4,0,0.9-0.6,1-1.2
		c0-1.1,0.1-6.2,0.2-10.2c0.1-1.8,0-2.6,0.1-4.7c1.4-1.2,4-1.5,4.4-1.5c1.5,0,5.3,0.5,5.3,3.3c0,3.2-4.5,5.6-6.8,5.6
		c-0.7,0-1.3-0.4-1.3-1.2c0-0.6,1.5-2.8,2.3-2.8c0.1,0,0.2,0.1,0.4,0.2c0.2,0.3-0.4,0.5-0.3,0.9c0,0.2,0.1,0.5,0.3,0.6
		c0.6,0.1,1.3-0.8,1.4-1.5c0.1-0.8-0.5-1.3-1.4-1.3c-1.4,0-3.7,2.4-3.7,4.1c0,1.4,1.6,2.1,2.2,2.1C135.9,24.8,139.9,20.5,139.9,17.9
		L139.9,17.9z"/>
</g>
</svg>
